# xmcd CD database file
#
# Track frame offsets:
#	187
#	11922
#	32170
#	44580
#	56247
#	69227
#	80097
#	91530
#	104552
#	123200
#	133470
#	143100
#	153887
#	166097
#	176620
#	186850
#	200095
#	212852
#
# Disc length: 2993 seconds
#
# Revision: 1
# Processed by: cddbd v1.5.2PL0 Copyright (c) Steve Scherf et al.
# Submitted via: CDex 1.70beta2
#
DISCID=070baf12
DTITLE=ポール・モーリア - Reflection [CD3]
DYEAR=1994
DGENRE=Easy Listening
TTITLE0=リリー・マルレーン
TTITLE1=マイ・ウェイ
TTITLE2=愛の歴史（ミスター・サマータイム）
TTITLE3=ウィ・シャル・ダンス
TTITLE4=そよ風の想い出
TTITLE5=ジャマイカの愛の風
TTITLE6=雨
TTITLE7=渚の別れ
TTITLE8=ペイネ〜愛の世界旅行
TTITLE9=恋はメロディ
TTITLE10=涙のシャンソン日記
TTITLE11=空と太陽と海
TTITLE12=カプリの恋の物語
TTITLE13=アリーヌ
TTITLE14=ブラック・ハーレム
TTITLE15=冬の朝
TTITLE16=気まぐれを許して
TTITLE17=さよなら
EXTD=YEAR: 1994
EXTT0=
EXTT1=
EXTT2=
EXTT3=
EXTT4=
EXTT5=
EXTT6=
EXTT7=
EXTT8=
EXTT9=
EXTT10=
EXTT11=
EXTT12=
EXTT13=
EXTT14=
EXTT15=
EXTT16=
EXTT17=
PLAYORDER=
